{
	"asset":{
		"generator":"Khronos glTF Blender I/O v4.1.63",
		"version":"2.0"
	},
	"extensionsUsed":[
		"KHR_materials_specular"
	],
	"scene":0,
	"scenes":[
		{
			"name":"Scene",
			"nodes":[
				0
			]
		}
	],
	"nodes":[
		{
			"mesh":0,
			"name":"Curve",
			"rotation":[
				0.7071068286895752,
				0,
				0,
				0.7071068286895752
			],
			"translation":[
				0.0035936590284109116,
				0.4736388921737671,
				0
			]
		}
	],
	"materials":[
		{
			"doubleSided":true,
			"extensions":{
				"KHR_materials_specular":{
					"specularColorFactor":[
						1.600000023841858,
						1.600000023841858,
						1.600000023841858
					]
				}
			},
			"name":"None",
			"pbrMetallicRoughness":{
				"baseColorFactor":[
					0.8001489639282227,
					0,
					0.002183243166655302,
					1
				],
				"metallicFactor":0,
				"roughnessFactor":0.2928932309150696
			}
		}
	],
	"meshes":[
		{
			"name":"Curve",
			"primitives":[
				{
					"attributes":{
						"POSITION":0,
						"NORMAL":1,
						"TEXCOORD_0":2
					},
					"indices":3,
					"material":0
				}
			]
		}
	],
	"accessors":[
		{
			"bufferView":0,
			"componentType":5126,
			"count":1230,
			"max":[
				0.21594887971878052,
				0.03299976512789726,
				0.44784462451934814
			],
			"min":[
				-0.21599215269088745,
				-0.03300023451447487,
				-0.2920262813568115
			],
			"type":"VEC3"
		},
		{
			"bufferView":1,
			"componentType":5126,
			"count":1230,
			"type":"VEC3"
		},
		{
			"bufferView":2,
			"componentType":5126,
			"count":1230,
			"type":"VEC2"
		},
		{
			"bufferView":3,
			"componentType":5123,
			"count":6192,
			"type":"SCALAR"
		}
	],
	"bufferViews":[
		{
			"buffer":0,
			"byteLength":14760,
			"byteOffset":0,
			"target":34962
		},
		{
			"buffer":0,
			"byteLength":14760,
			"byteOffset":14760,
			"target":34962
		},
		{
			"buffer":0,
			"byteLength":9840,
			"byteOffset":29520,
			"target":34962
		},
		{
			"buffer":0,
			"byteLength":12384,
			"byteOffset":39360,
			"target":34963
		}
	],
	"buffers":[
		{
			"byteLength":51744,
			"uri":"pin.bin"
		}
	]
}
